<?xml version="1.0" encoding="UTF-8"?>
<svg id="Calque_1" data-name="Calque 1" xmlns="http://www.w3.org/2000/svg" viewBox="0 0 627.78 124.63">
  <defs>
    <style>
      .cls-1 {
        fill: #525566;
      }

      .cls-2 {
        fill: #e0e2e2;
      }

      .cls-3 {
        fill: #5b5e71;
      }

      .cls-4 {
        fill: #fff;
        isolation: isolate;
        opacity: .5;
      }

      .cls-5 {
        fill: #d4d6d6;
      }

      .cls-6 {
        fill: #ecf0f1;
      }
    </style>
  </defs>
  <g>
    <path class="cls-5" d="m0,62.31c0,1.84.09,3.67.24,5.48.53,6.1,1.95,11.97,4.12,17.42,2.16,5.48,5.1,10.57,8.62,15.17,9.75,12.65,24.29,21.45,40.88,23.7.3.03.59.06.89.12,2.49.3,5.01.44,7.58.44,13.69,0,26.33-4.41,36.61-11.88,5.78-4.21,10.78-9.36,14.84-15.25,2.9-4.24,5.33-8.86,7.11-13.8,2.43-6.66,3.76-13.86,3.76-21.39,0-8.77-1.84-17.15-5.09-24.73-.06-.12-.12-.27-.18-.39-6.4-14.48-18.16-26.07-32.73-32.26C79.18,1.76,70.94.01,62.32.01c-3.38,0-6.66.27-9.89.77-8.03,1.27-15.55,4.09-22.22,8.12-.3.18-.59.36-.89.56-6.34,3.94-11.88,9-16.41,14.9-.21.24-.39.47-.56.74C4.59,35.47,0,48.35,0,62.31h0Z"/>
    <path class="cls-2" d="m124.66,62.29c0,7.53-1.35,14.72-3.76,21.39-.34.91-.68,1.79-1.04,2.67-1.66,3.95-3.69,7.69-6.08,11.14-9.58,5.95-20.88,9.43-33,9.43-2.54,0-5.09-.16-7.58-.47-.31-.03-.6-.08-.88-.1-16.59-2.26-31.11-11.06-40.89-23.71-3.56-4.6-6.44-9.68-8.62-15.16-2.16-5.45-3.58-11.32-4.1-17.42-.16-1.79-.23-3.61-.23-5.45,0-13.03,4-25.13,10.85-35.16.31-.21.6-.39.91-.55,4.1-2.49,8.52-4.52,13.19-6,2.91-.93,5.92-1.64,9.01-2.13C55.67.29,58.94,0,62.32,0c8.62,0,16.85,1.77,24.33,4.93,14.57,6.18,26.33,17.76,32.72,32.25.08.13.13.26.18.39,3.27,7.58,5.11,15.97,5.11,24.72h0Z"/>
    <g>
      <path class="cls-6" d="m124.66,62.29c0,7.53-1.35,14.72-3.76,21.39-.34.91-.68,1.79-1.04,2.67-5.97,1.92-12.36,2.96-18.95,2.96-2.54,0-5.09-.16-7.58-.44-.31-.03-.6-.1-.91-.13-16.57-2.26-31.08-11.03-40.87-23.71-3.56-4.57-6.47-9.68-8.62-15.16-2.16-5.45-3.58-11.29-4.1-17.4-.16-1.82-.26-3.63-.26-5.45,0-8.54,1.71-16.7,4.86-24.12,2.91-.93,5.92-1.64,9.01-2.13C55.67.29,58.94,0,62.32,0c8.62,0,16.85,1.77,24.33,4.93,14.57,6.18,26.33,17.76,32.72,32.25.08.13.13.26.18.39,3.27,7.58,5.11,15.97,5.11,24.72Z"/>
      <path class="cls-6" d="m29.24,56.8c3.29,9.06,7.38,18.66,12.17,28.61-1.21,1.45-2.34,2.96-3.35,4.56-2.4-2.25-4.62-4.71-6.64-7.32-3.55-4.59-6.46-9.69-8.62-15.17-1.57-3.91-2.72-8.06-3.47-12.35,3.14.83,6.46,1.39,9.89,1.66h0Z"/>
      <path class="cls-6" d="m119.64,38.02l-4.21,1.1-.12-.44-.09-.41,4.15-1.07c.06.09.09.21.15.3l.03.09.09.44Z"/>
    </g>
    <path class="cls-4" d="m64.79,40.07c0,.6.03,1.2.08,1.79.17,1.99.64,3.91,1.35,5.69.71,1.79,1.67,3.46,2.82,4.96,3.19,4.13,7.94,7.01,13.36,7.75.1,0,.19.02.29.04.81.1,1.64.15,2.48.15,4.47,0,8.61-1.44,11.97-3.88,1.89-1.37,3.52-3.06,4.85-4.99.95-1.38,1.74-2.89,2.32-4.51.79-2.18,1.23-4.53,1.23-6.99,0-2.87-.6-5.61-1.67-8.08-.02-.04-.04-.09-.06-.13-2.09-4.73-5.93-8.52-10.7-10.54-2.44-1.04-5.13-1.61-7.95-1.61-1.1,0-2.18.09-3.23.25-2.62.42-5.08,1.34-7.26,2.65-.1.06-.19.12-.29.18-2.07,1.29-3.88,2.94-5.36,4.87-.07.08-.13.15-.18.24-2.54,3.39-4.04,7.6-4.04,12.16h0Z"/>
    <path class="cls-4" d="m64.79,40.07c0,11.14,9.01,20.37,20.37,20.37s20.37-8.91,20.37-20.37c0-8.27-4.96-15.58-12.42-18.75-13.32-5.66-28.32,4.11-28.32,18.75h0Z"/>
    <path class="cls-3" d="m12.78,97.8c4.49,3.04,10.66,5.27,19.31,7.01,4.76,6.21,12.33,10.92,21.56,14.73h0c0,1.42.09,3.13.19,4.52.3.04.6.08.9.12-.1-1.37-.2-3.09-.2-4.52h0c8.84-1.15,16.64-4.03,23.53-8.47v.07c1.29.09,2.62.14,3.97.14,5.79,0,12.02-.86,17.99-2.5l-1.09,3.85c9.93-7.22,17.64-17.3,21.93-29.04h0s-3.06,1.81-3.06,1.81c-1.28-10.2-2.78-17.2-4.57-21.4,2.8-8.23,3.58-16.7,2.09-25.43l.11.43,4.21-1.1-.22-.86-4.21,1.1.11.43c-5.47-7.32-12.03-12.93-19.64-16.89l.09-.05c-3.64-6.45-7.81-11.94-12.39-16.35l3.24-.47c-7.47-3.17-15.69-4.92-24.31-4.92-3.37,0-6.68.27-9.9.78l2.3,1.06c-5.78,3.28-11.85,7.78-17.25,12.8-8.1,2.13-15.36,5.78-21.62,11.25,0,0,0,0,0,0-.46-.3-1.7-1.06-2.95-1.53-.19.25-.38.49-.56.74,1.17.39,2.43,1.15,2.95,1.48,0,0,0,0,0,0-3.78,7.67-5.88,15.76-5.46,24.47-3.47,5.7-6.4,12.99-7.82,19.43-.67-.73-1.26-1.64-1.78-2.7,1.06,12.21,5.64,23.42,12.73,32.59-.2-1-.27-1.87-.18-2.57Zm17.3-41.28l18.35-23.56c10.87.79,21.23,2.07,30.78,3.79l11.29,26.83c-4.9,7.8-10.88,15.95-18.74,25.55l-29.54-4.05c-4.78-9.93-8.86-19.53-12.14-28.57h0ZM94.68,21.61c-6.09,3.75-11.36,8.36-15.37,14.26-9.55-1.72-19.89-3-30.75-3.79-2.59-6.58-5.93-12.32-9.99-17.24,5.5-5.05,11.67-9.54,17.49-12.72,8.19-.42,16.87.75,25.92,3.09l-.04.04c4.71,4.35,8.99,9.86,12.74,16.37Zm-16.09,88.78c-1.1-7.59-3.13-14.48-6.26-20.54,7.91-9.65,13.93-17.85,18.86-25.69,6.4,1.84,13.62,1.83,21.37.63,1.74,4.26,3.2,11.33,4.46,21.59-4.16,7.55-9.4,14.74-16.2,21.4v-.02c-7.42,2.15-15.29,3.09-22.23,2.64h0Zm-46.63-6.52c-8.72-1.77-14.84-4.06-19.21-7.18-5.3-8.6-8.75-16.96-10.16-25.08l.09.02c1.29-6.48,4.23-13.99,7.75-19.86,5.62,2.82,11.9,4.48,18.81,5.03,3.28,9.05,7.37,18.66,12.15,28.61-4.4,5.33-7.65,11.42-9.44,18.46Z"/>
    <path class="cls-1" d="m106.87,101.2c-1.84,2.25-3.85,4.44-6.04,6.58l-.03-.03c-7.41,2.16-15.28,3.08-22.22,2.64-.18-1.21-.39-2.4-.59-3.55-1.6-.03-3.23-.18-4.8-.36-.3-.03-.59-.09-.89-.12-13.18-1.78-25.03-7.7-34.24-16.38-2.73,4.18-4.8,8.8-6.1,13.89-8.71-1.78-14.84-4.06-19.22-7.17-5.27-8.59-8.74-16.97-10.16-25.09l.09.03c1.3-6.49,4.24-13.98,7.76-19.88,2.81,1.42,5.78,2.55,8.92,3.38-.3-1.66-.5-3.35-.65-5.07-.15-1.81-.24-3.61-.24-5.45,0-8.56,1.72-16.74,4.86-24.14-2.64,1.57-5.12,3.35-7.46,5.39-.44-.3-1.69-1.04-2.93-1.51-.21.24-.39.47-.56.74,1.16.38,2.43,1.16,2.93,1.48-3.47,7.02-5.51,14.4-5.51,22.28,0,.74.03,1.45.06,2.19-3.47,5.69-6.4,12.97-7.82,19.43-.68-.74-1.24-1.63-1.78-2.7,1.07,12.2,5.66,23.4,12.74,32.58-.21-1.01-.27-1.87-.18-2.58,4.47,3.05,10.63,5.27,19.31,7.02,4.74,6.22,12.32,10.9,21.53,14.72,0,1.42.09,3.14.21,4.53.3.03.59.06.89.12-.09-1.39-.21-3.11-.21-4.53,8.86-1.16,16.65-4.03,23.55-8.47l-.03.06c1.3.12,2.64.15,4,.15,5.78,0,12-.86,17.98-2.49l-1.1,3.85c5.78-4.21,10.78-9.36,14.84-15.25-2.22,1.39-4.53,2.64-6.9,3.7h0Zm12.68-63.63l-.03-.09-.09-.33-.06.03-4.15,1.07.09.41.12.44,4.21-1.1-.09-.44Z"/>
  </g>
  <g>
    <path d="m153.84,91.49c.68-6.61,1.15-11.91,1.41-15.92.39-5.92.76-14.07,1.12-24.44.36-10.37.54-17.34.54-20.92v-5.37c9.8.07,18.91.1,27.35.1s16.67-.03,24.51-.1c-.52,7.49-.78,12.39-.78,14.7l-4.25-.15-3.42-.05-3.42-.05h-9.62c-1.11,0-4.35.03-9.72.1l-.44,11.38,7.08.15h7.91c2.28,0,5.76-.05,10.45-.15-.36,6.15-.54,10.97-.54,14.45-5.23-.16-9.12-.24-11.65-.24-4.29,0-8.97.08-14.04.24l-.51,17.58-.05,6.54v2.15l-10.51-.1c-.81,0-4.63.03-11.44.1Z"/>
    <path d="m243.49,40.37c4.04,0,7.92.62,11.65,1.86,3.73,1.24,6.88,3.02,9.45,5.35,2.57,2.33,4.47,5.05,5.69,8.15,1.22,3.11,1.83,6.45,1.83,10.03s-.55,6.8-1.64,9.94c-1.09,3.14-2.94,6.09-5.54,8.84-2.6,2.75-5.92,4.81-9.94,6.18-4.02,1.37-8.28,2.05-12.77,2.05-4.13,0-8.11-.6-11.91-1.81s-6.99-2.96-9.55-5.27c-2.56-2.31-4.48-5.08-5.76-8.3-1.29-3.22-1.93-6.61-1.93-10.16s.63-6.93,1.88-10.16c1.25-3.22,3.24-6.12,5.96-8.69,2.72-2.57,6.08-4.55,10.08-5.93,4-1.38,8.17-2.08,12.5-2.08Zm-.34,14.36c-2.08,0-3.94.54-5.57,1.61-1.63,1.07-2.86,2.65-3.69,4.71-.83,2.07-1.25,4.32-1.25,6.76,0,3.58.9,6.32,2.69,8.23,1.79,1.9,4.04,2.86,6.74,2.86,2.05,0,3.89-.54,5.52-1.64,1.63-1.09,2.86-2.7,3.69-4.83.83-2.13,1.25-4.42,1.25-6.86,0-2.02-.33-3.84-.98-5.47-.65-1.63-1.72-2.93-3.2-3.91-1.48-.98-3.21-1.46-5.2-1.46Z"/>
    <path d="m308.38,40.37c4.04,0,7.92.62,11.65,1.86,3.73,1.24,6.88,3.02,9.45,5.35,2.57,2.33,4.47,5.05,5.69,8.15,1.22,3.11,1.83,6.45,1.83,10.03s-.55,6.8-1.64,9.94c-1.09,3.14-2.94,6.09-5.54,8.84-2.6,2.75-5.92,4.81-9.94,6.18-4.02,1.37-8.28,2.05-12.77,2.05-4.13,0-8.11-.6-11.91-1.81s-6.99-2.96-9.55-5.27c-2.56-2.31-4.48-5.08-5.76-8.3-1.29-3.22-1.93-6.61-1.93-10.16s.63-6.93,1.88-10.16c1.25-3.22,3.24-6.12,5.96-8.69,2.72-2.57,6.08-4.55,10.08-5.93,4-1.38,8.17-2.08,12.5-2.08Zm-.34,14.36c-2.08,0-3.94.54-5.57,1.61-1.63,1.07-2.86,2.65-3.69,4.71-.83,2.07-1.25,4.32-1.25,6.76,0,3.58.89,6.32,2.69,8.23,1.79,1.9,4.04,2.86,6.74,2.86,2.05,0,3.89-.54,5.52-1.64,1.63-1.09,2.86-2.7,3.69-4.83.83-2.13,1.25-4.42,1.25-6.86,0-2.02-.33-3.84-.98-5.47-.65-1.63-1.72-2.93-3.2-3.91-1.48-.98-3.21-1.46-5.2-1.46Z"/>
    <path d="m380.55,77.13c-.59,2.73-1.09,5.4-1.51,8.01l-1.07,5.96c-3.22.72-5.74,1.17-7.54,1.37s-3.56.29-5.25.29c-2.77,0-5.22-.24-7.37-.71s-3.94-1.33-5.37-2.59c-1.43-1.25-2.41-2.69-2.93-4.32-.52-1.63-.78-3.35-.78-5.18,0-.33.02-.9.05-1.73s.15-2.68.34-5.54l1.07-16.89h-7.61c.16-2.25.31-5.21.44-8.89l.15-4.54h8.09c.19-1.5.44-4.77.73-9.81l8.36-1.71c1.53-.29,4.79-1.04,9.78-2.25-.23,4.26-.39,8.85-.49,13.77h11.13c-.26,6.77-.39,11.25-.39,13.43h-11.23l-.59,12.21c-.07,1.82-.1,3-.1,3.52,0,1.56.17,2.87.51,3.91.34,1.04.94,1.79,1.81,2.25.86.46,1.82.68,2.86.68.78,0,1.6-.06,2.44-.17.85-.11,2.34-.46,4.5-1.05Z"/>
    <path d="m386.8,90.46c-.42-6.93-.91-12.48-1.46-16.65,3.65,1.63,6.91,2.76,9.76,3.39s5.36.95,7.51.95c2.84,0,5.09-.42,6.77-1.25s2.52-2.06,2.52-3.69c0-.55-.08-1.08-.25-1.59-.16-.5-.47-1.07-.93-1.71s-1.11-1.33-1.96-2.08l-9.2-8.01c-2.15-1.82-3.65-3.14-4.5-3.96-1.73-1.66-3.08-3.21-4.04-4.64-.96-1.43-1.66-2.89-2.1-4.37-.44-1.48-.66-3.05-.66-4.71,0-1.99.35-3.93,1.05-5.83.7-1.9,1.75-3.69,3.15-5.35,1.4-1.66,3.25-3.09,5.57-4.3,2.31-1.2,4.79-2.03,7.42-2.47s5.35-.66,8.15-.66c5.5,0,11.49.63,17.97,1.9.1,2.25.21,4.31.34,6.18.13,1.87.44,5.15.93,9.84-3-1.2-5.73-2.04-8.2-2.51-2.47-.47-4.61-.71-6.4-.71-2.54,0-4.65.47-6.32,1.42-1.68.94-2.51,2.12-2.51,3.52,0,.65.13,1.29.39,1.9.26.62.75,1.34,1.46,2.17.72.83,1.66,1.74,2.83,2.73,1.17.99,3.01,2.47,5.52,4.42l3.52,2.78c1.04.85,2.16,1.87,3.37,3.08,1.2,1.2,2.25,2.39,3.12,3.56s1.55,2.25,2.03,3.22c.47.98.82,1.96,1.05,2.95.23.99.34,2.06.34,3.2,0,2.93-.7,5.72-2.1,8.37-1.4,2.65-3.39,4.83-5.96,6.54-2.57,1.71-5.4,2.91-8.47,3.59s-6.32,1.03-9.74,1.03c-5.27,0-11.93-.76-19.97-2.29Z"/>
    <path d="m478.4,77.13c-.59,2.73-1.09,5.4-1.51,8.01l-1.07,5.96c-3.22.72-5.74,1.17-7.54,1.37s-3.56.29-5.25.29c-2.77,0-5.22-.24-7.37-.71s-3.94-1.33-5.37-2.59c-1.43-1.25-2.41-2.69-2.93-4.32-.52-1.63-.78-3.35-.78-5.18,0-.33.02-.9.05-1.73s.15-2.68.34-5.54l1.07-16.89h-7.61c.16-2.25.31-5.21.44-8.89l.15-4.54h8.09c.19-1.5.44-4.77.73-9.81l8.36-1.71c1.53-.29,4.79-1.04,9.78-2.25-.23,4.26-.39,8.85-.49,13.77h11.13c-.26,6.77-.39,11.25-.39,13.43h-11.23l-.59,12.21c-.07,1.82-.1,3-.1,3.52,0,1.56.17,2.87.51,3.91.34,1.04.94,1.79,1.81,2.25.86.46,1.82.68,2.86.68.78,0,1.6-.06,2.44-.17.85-.11,2.34-.46,4.5-1.05Z"/>
    <path d="m489.24,55.85c.62-3.22,1.01-5.44,1.17-6.67.16-1.22.42-3.13.78-5.74,9.38-2.05,17.43-3.08,24.17-3.08,3.84,0,7.36.43,10.55,1.29,3.19.86,5.68,2.25,7.47,4.17,1.79,1.92,2.69,4.67,2.69,8.25,0,1.82-.24,5.92-.73,12.3-.49,6.38-.86,14.75-1.12,25.1-3.19-.06-6.37-.1-9.53-.1s-6.32.03-9.77.1c.44-3.58.94-10.97,1.48-22.17-1.23.59-2.2,1.01-2.9,1.27-.7.26-1.93.65-3.68,1.17-1.75.52-3.13.96-4.12,1.32-.99.36-1.85.81-2.58,1.37-.73.55-1.25,1.12-1.56,1.71-.31.59-.46,1.24-.46,1.95,0,1.11.44,2.05,1.32,2.83s2.28,1.17,4.2,1.17c.68,0,1.42-.06,2.2-.17.78-.11,1.86-.4,3.22-.85-.94,2.51-2.07,6.17-3.37,10.99-2.8.46-5.45.68-7.96.68-4.04,0-7.4-.56-10.08-1.68s-4.75-2.94-6.2-5.44c-1.45-2.51-2.17-5.01-2.17-7.52,0-1.53.27-3.03.8-4.49s1.38-2.9,2.51-4.3c1.14-1.4,2.47-2.6,4-3.59,1.53-.99,3.62-1.93,6.27-2.81,2.65-.88,6.01-1.71,10.08-2.49,1.69-.33,3.25-.68,4.66-1.05,1.42-.37,2.42-.7,3.03-.98.6-.28,1.09-.6,1.46-.98.37-.37.64-.76.81-1.17.16-.41.24-.84.24-1.29,0-1.24-.52-2.19-1.56-2.86-1.04-.67-2.57-1-4.59-1-5.6,0-12.51,1.58-20.74,4.74Z"/>
    <path d="m581.53,77.13c-.59,2.73-1.09,5.4-1.51,8.01l-1.07,5.96c-3.22.72-5.74,1.17-7.54,1.37s-3.56.29-5.25.29c-2.77,0-5.22-.24-7.37-.71s-3.94-1.33-5.37-2.59c-1.43-1.25-2.41-2.69-2.93-4.32-.52-1.63-.78-3.35-.78-5.18,0-.33.02-.9.05-1.73s.15-2.68.34-5.54l1.07-16.89h-7.61c.16-2.25.31-5.21.44-8.89l.15-4.54h8.09c.19-1.5.44-4.77.73-9.81l8.36-1.71c1.53-.29,4.79-1.04,9.78-2.25-.23,4.26-.39,8.85-.49,13.77h11.13c-.26,6.77-.39,11.25-.39,13.43h-11.23l-.59,12.21c-.07,1.82-.1,3-.1,3.52,0,1.56.17,2.87.51,3.91.34,1.04.94,1.79,1.81,2.25.86.46,1.82.68,2.86.68.78,0,1.6-.06,2.44-.17.85-.11,2.34-.46,4.49-1.05Z"/>
    <path d="m587.39,90.56c-.13-1.43-.26-2.94-.39-4.52-.13-1.58-.34-3.75-.63-6.52l-.39-3.52c3.15,1.24,5.86,2.16,8.13,2.76,2.27.6,4.37.9,6.29.9,1.59,0,2.88-.15,3.87-.44s1.71-.72,2.17-1.27c.45-.55.68-1.12.68-1.71,0-.52-.17-1.03-.51-1.54-.34-.5-1.11-1.2-2.31-2.08-2.66-1.95-5.01-3.73-7.04-5.32-2.03-1.59-3.56-3.01-4.58-4.25-1.02-1.24-1.8-2.57-2.34-4-.54-1.43-.8-2.91-.8-4.44,0-2.7.77-5.22,2.32-7.57,1.55-2.34,3.82-4.04,6.84-5.1,3.01-1.06,6.68-1.59,11.01-1.59s10.3.59,17.33,1.76l.78,13.67c-3.94-1.56-7.73-2.34-11.38-2.34-2.57,0-4.44.26-5.59.79-1.16.53-1.73,1.34-1.73,2.43,0,.36.06.7.2,1.03.13.33.37.67.71,1.03.34.36.76.72,1.27,1.1.5.37,1.73,1.25,3.69,2.61s3.48,2.49,4.59,3.37c1.82,1.43,3.21,2.76,4.17,3.98.96,1.22,1.69,2.52,2.2,3.91.5,1.38.76,2.84.76,4.37,0,2.31-.56,4.44-1.68,6.37-1.12,1.94-2.82,3.56-5.08,4.86-2.26,1.3-4.71,2.21-7.35,2.71s-5.36.76-8.15.76c-1.89,0-4.26-.16-7.1-.49-2.85-.33-6.16-.89-9.94-1.71Z"/>
  </g>
</svg>