<?xml version="1.0" encoding="UTF-8"?>
<svg id="Calque_1" data-name="Calque 1" xmlns="http://www.w3.org/2000/svg" viewBox="0 0 473.92 208.1">
  <defs>
    <style>
      .cls-1 {
        fill: #525566;
      }

      .cls-2 {
        fill: #a51b1b;
        font-family: ErasITC-Bold, 'Eras Bold ITC';
        font-size: 100px;
        font-weight: 700;
      }

      .cls-3 {
        fill: #e0e2e2;
      }

      .cls-4 {
        fill: #5b5e71;
      }

      .cls-5 {
        fill: #fff;
        isolation: isolate;
        opacity: .5;
      }

      .cls-6 {
        fill: #d4d6d6;
      }

      .cls-7 {
        fill: #ecf0f1;
      }
    </style>
  </defs>
  <g>
    <path class="cls-6" d="m174.63,62.31c0,1.84.09,3.67.24,5.48.53,6.1,1.95,11.97,4.12,17.42,2.16,5.48,5.1,10.57,8.62,15.17,9.75,12.65,24.29,21.45,40.88,23.7.3.03.59.06.89.12,2.49.3,5.01.44,7.58.44,13.69,0,26.33-4.41,36.61-11.88,5.78-4.21,10.78-9.36,14.84-15.25,2.9-4.24,5.33-8.86,7.11-13.8,2.43-6.66,3.76-13.86,3.76-21.39,0-8.77-1.84-17.15-5.09-24.73-.06-.12-.12-.27-.18-.39-6.4-14.48-18.16-26.07-32.73-32.26C253.81,1.76,245.57.01,236.95.01c-3.38,0-6.66.27-9.89.77-8.03,1.27-15.55,4.09-22.22,8.12-.3.18-.59.36-.89.56-6.34,3.94-11.88,9-16.41,14.9-.21.24-.39.47-.56.74-7.76,10.37-12.35,23.25-12.35,37.2h0Z"/>
    <path class="cls-3" d="m299.29,62.29c0,7.53-1.35,14.72-3.76,21.39-.34.91-.68,1.79-1.04,2.67-1.66,3.95-3.69,7.69-6.08,11.14-9.58,5.95-20.88,9.43-33,9.43-2.54,0-5.09-.16-7.58-.47-.31-.03-.6-.08-.88-.1-16.59-2.26-31.11-11.06-40.89-23.71-3.56-4.6-6.44-9.68-8.62-15.16-2.16-5.45-3.58-11.32-4.1-17.42-.16-1.79-.23-3.61-.23-5.45,0-13.03,4-25.13,10.85-35.16.31-.21.6-.39.91-.55,4.1-2.49,8.52-4.52,13.19-6,2.91-.93,5.92-1.64,9.01-2.13,3.25-.49,6.52-.78,9.89-.78,8.62,0,16.85,1.77,24.33,4.93,14.57,6.18,26.33,17.76,32.72,32.25.08.13.13.26.18.39,3.27,7.58,5.11,15.97,5.11,24.72h0Z"/>
    <g>
      <path class="cls-7" d="m299.29,62.29c0,7.53-1.35,14.72-3.76,21.39-.34.91-.68,1.79-1.04,2.67-5.97,1.92-12.36,2.96-18.95,2.96-2.54,0-5.09-.16-7.58-.44-.31-.03-.6-.1-.91-.13-16.57-2.26-31.08-11.03-40.87-23.71-3.56-4.57-6.47-9.68-8.62-15.16-2.16-5.45-3.58-11.29-4.1-17.4-.16-1.82-.26-3.63-.26-5.45,0-8.54,1.71-16.7,4.86-24.12,2.91-.93,5.92-1.64,9.01-2.13,3.25-.49,6.52-.78,9.89-.78,8.62,0,16.85,1.77,24.33,4.93,14.57,6.18,26.33,17.76,32.72,32.25.08.13.13.26.18.39,3.27,7.58,5.11,15.97,5.11,24.72Z"/>
      <path class="cls-7" d="m203.87,56.8c3.29,9.06,7.38,18.66,12.17,28.61-1.21,1.45-2.34,2.96-3.35,4.56-2.4-2.25-4.62-4.71-6.64-7.32-3.55-4.59-6.46-9.69-8.62-15.17-1.57-3.91-2.72-8.06-3.47-12.35,3.14.83,6.46,1.39,9.89,1.66h0Z"/>
      <path class="cls-7" d="m294.27,38.02l-4.21,1.1-.12-.44-.09-.41,4.15-1.07c.06.09.09.21.15.3l.03.09.09.44Z"/>
    </g>
    <path class="cls-5" d="m239.42,40.07c0,.6.03,1.2.08,1.79.17,1.99.64,3.91,1.35,5.69.71,1.79,1.67,3.46,2.82,4.96,3.19,4.13,7.94,7.01,13.36,7.75.1,0,.19.02.29.04.81.1,1.64.15,2.48.15,4.47,0,8.61-1.44,11.97-3.88,1.89-1.37,3.52-3.06,4.85-4.99.95-1.38,1.74-2.89,2.32-4.51.79-2.18,1.23-4.53,1.23-6.99,0-2.87-.6-5.61-1.67-8.08-.02-.04-.04-.09-.06-.13-2.09-4.73-5.93-8.52-10.7-10.54-2.44-1.04-5.13-1.61-7.95-1.61-1.1,0-2.18.09-3.23.25-2.62.42-5.08,1.34-7.26,2.65-.1.06-.19.12-.29.18-2.07,1.29-3.88,2.94-5.36,4.87-.07.08-.13.15-.18.24-2.54,3.39-4.04,7.6-4.04,12.16h0Z"/>
    <path class="cls-5" d="m239.42,40.07c0,11.14,9.01,20.37,20.37,20.37s20.37-8.91,20.37-20.37c0-8.27-4.96-15.58-12.42-18.75-13.32-5.66-28.32,4.11-28.32,18.75h0Z"/>
    <path class="cls-4" d="m187.41,97.8c4.49,3.04,10.66,5.27,19.31,7.01,4.76,6.21,12.33,10.92,21.56,14.73h0c0,1.42.09,3.13.19,4.52.3.04.6.08.9.12-.1-1.37-.2-3.09-.2-4.52h0c8.84-1.15,16.64-4.03,23.53-8.47v.07c1.29.09,2.62.14,3.97.14,5.79,0,12.02-.86,17.99-2.5l-1.09,3.85c9.93-7.22,17.64-17.3,21.93-29.04h0s-3.06,1.81-3.06,1.81c-1.28-10.2-2.78-17.2-4.57-21.4,2.8-8.23,3.58-16.7,2.09-25.43l.11.43,4.21-1.1-.22-.86-4.21,1.1.11.43c-5.47-7.32-12.03-12.93-19.64-16.89l.09-.05c-3.64-6.45-7.81-11.94-12.39-16.35l3.24-.47C253.79,1.75,245.58,0,236.95,0,233.58,0,230.27.27,227.05.78l2.3,1.06c-5.78,3.28-11.85,7.78-17.25,12.8-8.1,2.13-15.36,5.78-21.62,11.25,0,0,0,0,0,0-.46-.3-1.7-1.06-2.95-1.53-.19.25-.38.49-.56.74,1.17.39,2.43,1.15,2.95,1.48,0,0,0,0,0,0-3.78,7.67-5.88,15.76-5.46,24.47-3.47,5.7-6.4,12.99-7.82,19.43-.67-.73-1.26-1.64-1.78-2.7,1.06,12.21,5.64,23.42,12.73,32.59-.2-1-.27-1.87-.18-2.57Zm17.3-41.28l18.35-23.56c10.87.79,21.23,2.07,30.78,3.79l11.29,26.83c-4.9,7.8-10.88,15.95-18.74,25.55l-29.54-4.05c-4.78-9.93-8.86-19.53-12.14-28.57h0Zm64.59-34.9c-6.09,3.75-11.36,8.36-15.37,14.26-9.55-1.72-19.89-3-30.75-3.79-2.59-6.58-5.93-12.32-9.99-17.24,5.5-5.05,11.67-9.54,17.49-12.72,8.19-.42,16.87.75,25.92,3.09l-.04.04c4.71,4.35,8.99,9.86,12.74,16.37Zm-16.09,88.78c-1.1-7.59-3.13-14.48-6.26-20.54,7.91-9.65,13.93-17.85,18.86-25.69,6.4,1.84,13.62,1.83,21.37.63,1.74,4.26,3.2,11.33,4.46,21.59-4.16,7.55-9.4,14.74-16.2,21.4v-.02c-7.42,2.15-15.29,3.09-22.23,2.64h0Zm-46.63-6.52c-8.72-1.77-14.84-4.06-19.21-7.18-5.3-8.6-8.75-16.96-10.16-25.08l.09.02c1.29-6.48,4.23-13.99,7.75-19.86,5.62,2.82,11.9,4.48,18.81,5.03,3.28,9.05,7.37,18.66,12.15,28.61-4.4,5.33-7.65,11.42-9.44,18.46Z"/>
    <path class="cls-1" d="m281.5,101.2c-1.84,2.25-3.85,4.44-6.04,6.58l-.03-.03c-7.41,2.16-15.28,3.08-22.22,2.64-.18-1.21-.39-2.4-.59-3.55-1.6-.03-3.23-.18-4.8-.36-.3-.03-.59-.09-.89-.12-13.18-1.78-25.03-7.7-34.24-16.38-2.73,4.18-4.8,8.8-6.1,13.89-8.71-1.78-14.84-4.06-19.22-7.17-5.27-8.59-8.74-16.97-10.16-25.09l.09.03c1.3-6.49,4.24-13.98,7.76-19.88,2.81,1.42,5.78,2.55,8.92,3.38-.3-1.66-.5-3.35-.65-5.07-.15-1.81-.24-3.61-.24-5.45,0-8.56,1.72-16.74,4.86-24.14-2.64,1.57-5.12,3.35-7.46,5.39-.44-.3-1.69-1.04-2.93-1.51-.21.24-.39.47-.56.74,1.16.38,2.43,1.16,2.93,1.48-3.47,7.02-5.51,14.4-5.51,22.28,0,.74.03,1.45.06,2.19-3.47,5.69-6.4,12.97-7.82,19.43-.68-.74-1.24-1.63-1.78-2.7,1.07,12.2,5.66,23.4,12.74,32.58-.21-1.01-.27-1.87-.18-2.58,4.47,3.05,10.63,5.27,19.31,7.02,4.74,6.22,12.32,10.9,21.53,14.72,0,1.42.09,3.14.21,4.53.3.03.59.06.89.12-.09-1.39-.21-3.11-.21-4.53,8.86-1.16,16.65-4.03,23.55-8.47l-.03.06c1.3.12,2.64.15,4,.15,5.78,0,12-.86,17.98-2.49l-1.1,3.85c5.78-4.21,10.78-9.36,14.84-15.25-2.22,1.39-4.53,2.64-6.9,3.7h0Zm12.68-63.63l-.03-.09-.09-.33-.06.03-4.15,1.07.09.41.12.44,4.21-1.1-.09-.44Z"/>
  </g>
  <text class="cls-2" transform="translate(-4.55 206.8)"><tspan x="0" y="0">FootStats</tspan></text>
</svg>